HIERARCHY
ROOT hips
{
	OFFSET 0.000000 104.274902 0.000000
	CHANNELS 6 Xposition Yposition Zposition Xrotation Yrotation Zrotation
	JOINT spine
	{
		OFFSET 0.000000 10.181549 0.131524
		CHANNELS 6 Xposition Yposition Zposition Xrotation Yrotation Zrotation
		JOINT chest
		{
			OFFSET 0.000000 9.893990 -1.470706
			CHANNELS 3 Xrotation Yrotation Zrotation
			JOINT upperChest
			{
				OFFSET 0.000000 9.220787 -1.370637
				CHANNELS 3 Xrotation Yrotation Zrotation
				JOINT neck
				{
					OFFSET 0.000000 16.740372 -2.049022
					CHANNELS 6 Xposition Yposition Zposition Xrotation Yrotation Zrotation
					JOINT head
					{
						OFFSET 0.000000 9.617859 1.684976
						CHANNELS 6 Xposition Yposition Zposition Xrotation Yrotation Zrotation
						JOINT headEnd
						{
							OFFSET 0.000000 22.037384 7.501072
							CHANNELS 6 Xposition Yposition Zposition Xrotation Yrotation Zrotation
							End Site
							{
								OFFSET 0.000000 23.106567 -2.828246
							}
						}
					}
				}
				JOINT rightShoulder
				{
					OFFSET -4.570000 11.014877 -2.160840
					CHANNELS 6 Xposition Yposition Zposition Xrotation Yrotation Zrotation
					JOINT rightUpperArm
					{
						OFFSET -10.592867 -0.524796 -2.232105
						CHANNELS 3 Xrotation Yrotation Zrotation
						JOINT rightLowerArm
						{
							OFFSET -27.841497 0.000000 -0.000002
							CHANNELS 3 Xrotation Yrotation Zrotation
							JOINT rightHand
							{
								OFFSET -28.328812 0.000000 -0.000001
								CHANNELS 3 Xrotation Yrotation Zrotation
								JOINT rightThumbProximal
								{
									OFFSET -2.464798 -1.573990 2.681911
									CHANNELS 6 Xposition Yposition Zposition Xrotation Yrotation Zrotation
									JOINT rightThumbIntermediate
									{
										OFFSET -3.244781 -1.873383 1.873376
										CHANNELS 3 Xrotation Yrotation Zrotation
										JOINT rightThumbDistal
										{
											OFFSET -2.646263 -1.527817 1.527818
											CHANNELS 6 Xposition Yposition Zposition Xrotation Yrotation Zrotation
											JOINT rightHandThumb4
											{
												OFFSET -1.994591 -1.151581 1.151575
												CHANNELS 6 Xposition Yposition Zposition Xrotation Yrotation Zrotation
												End Site
												{
													OFFSET -1.860176 -1.142715 1.365483
												}
											}
										}
									}
								}
								JOINT rightIndexProximal
								{
									OFFSET -9.108299 -0.517883 2.259803
									CHANNELS 6 Xposition Yposition Zposition Xrotation Yrotation Zrotation
									JOINT rightIndexIntermediate
									{
										OFFSET -3.699997 0.000000 0.000000
										CHANNELS 3 Xrotation Yrotation Zrotation
										JOINT rightIndexDistal
										{
											OFFSET -2.850006 0.000000 0.000000
											CHANNELS 3 Xrotation Yrotation Zrotation
											JOINT rightHandIndex4
											{
												OFFSET -2.772194 0.000000 0.000000
												CHANNELS 3 Xrotation Yrotation Zrotation
												End Site
												{
													OFFSET -2.772202 0.000000 -0.000484
												}
											}
										}
									}
								}
								JOINT rightMiddleProximal
								{
									OFFSET -9.532501 0.000000 -0.000000
									CHANNELS 6 Xposition Yposition Zposition Xrotation Yrotation Zrotation
									JOINT rightMiddleIntermediate
									{
										OFFSET -3.699997 0.000000 0.000000
										CHANNELS 3 Xrotation Yrotation Zrotation
										JOINT rightMiddleDistal
										{
											OFFSET -2.949997 0.000000 0.000000
											CHANNELS 3 Xrotation Yrotation Zrotation
											JOINT rightHandMiddle4
											{
												OFFSET -2.946594 0.000000 0.000000
												CHANNELS 3 Xrotation Yrotation Zrotation
												End Site
												{
													OFFSET -2.946602 0.000000 -0.000982
												}
											}
										}
									}
								}
								JOINT rightRingProximal
								{
									OFFSET -9.103600 -0.043106 -1.865100
									CHANNELS 6 Xposition Yposition Zposition Xrotation Yrotation Zrotation
									JOINT rightRingIntermediate
									{
										OFFSET -3.379303 0.000000 0.000000
										CHANNELS 3 Xrotation Yrotation Zrotation
										JOINT rightRingDistal
										{
											OFFSET -2.889694 0.000000 0.000000
											CHANNELS 3 Xrotation Yrotation Zrotation
											JOINT rightHandRing4
											{
												OFFSET -2.638802 0.000000 0.000000
												CHANNELS 3 Xrotation Yrotation Zrotation
												End Site
												{
													OFFSET -2.638802 0.000000 0.004218
												}
											}
										}
									}
								}
								JOINT rightLittleProximal
								{
									OFFSET -8.076698 -0.486725 -3.806299
									CHANNELS 6 Xposition Yposition Zposition Xrotation Yrotation Zrotation
									JOINT rightLittleIntermediate
									{
										OFFSET -3.600006 0.000000 0.000000
										CHANNELS 3 Xrotation Yrotation Zrotation
										JOINT rightLittleDistal
										{
											OFFSET -2.099998 0.000000 0.000000
											CHANNELS 3 Xrotation Yrotation Zrotation
											JOINT rightHandPinky4
											{
												OFFSET -2.115791 0.000000 0.000000
												CHANNELS 3 Xrotation Yrotation Zrotation
												End Site
												{
													OFFSET -2.115799 0.000000 0.000174
												}
											}
										}
									}
								}
							}
						}
					}
				}
				JOINT leftShoulder
				{
					OFFSET 4.570400 11.014679 -2.160816
					CHANNELS 6 Xposition Yposition Zposition Xrotation Yrotation Zrotation
					JOINT leftUpperArm
					{
						OFFSET 10.592373 -0.524597 -2.232116
						CHANNELS 3 Xrotation Yrotation Zrotation
						JOINT leftLowerArm
						{
							OFFSET 27.841488 0.000000 0.000001
							CHANNELS 3 Xrotation Yrotation Zrotation
							JOINT leftHand
							{
								OFFSET 28.328808 0.000000 -0.000000
								CHANNELS 3 Xrotation Yrotation Zrotation
								JOINT leftThumbProximal
								{
									OFFSET 2.466103 -1.576202 2.681698
									CHANNELS 6 Xposition Yposition Zposition Xrotation Yrotation Zrotation
									JOINT leftThumbIntermediate
									{
										OFFSET 3.243317 -1.872528 1.872530
										CHANNELS 3 Xrotation Yrotation Zrotation
										JOINT leftThumbDistal
										{
											OFFSET 2.647881 -1.528763 1.528754
											CHANNELS 6 Xposition Yposition Zposition Xrotation Yrotation Zrotation
											JOINT leftHandThumb4
											{
												OFFSET 1.998924 -1.154083 1.154080
												CHANNELS 6 Xposition Yposition Zposition Xrotation Yrotation Zrotation
												End Site
												{
													OFFSET 1.884041 -1.149155 1.337651
												}
											}
										}
									}
								}
								JOINT leftIndexProximal
								{
									OFFSET 9.109299 -0.518005 2.259900
									CHANNELS 6 Xposition Yposition Zposition Xrotation Yrotation Zrotation
									JOINT leftIndexIntermediate
									{
										OFFSET 3.699997 0.000000 0.000000
										CHANNELS 3 Xrotation Yrotation Zrotation
										JOINT leftIndexDistal
										{
											OFFSET 2.850006 0.000000 0.000000
											CHANNELS 3 Xrotation Yrotation Zrotation
											JOINT leftHandIndex4
											{
												OFFSET 2.774895 0.000000 0.000000
												CHANNELS 3 Xrotation Yrotation Zrotation
												End Site
												{
													OFFSET 2.774902 0.000000 -0.000072
												}
											}
										}
									}
								}
								JOINT leftMiddleProximal
								{
									OFFSET 9.533401 0.000000 0.000000
									CHANNELS 6 Xposition Yposition Zposition Xrotation Yrotation Zrotation
									JOINT leftMiddleIntermediate
									{
										OFFSET 3.699997 0.000000 0.000000
										CHANNELS 3 Xrotation Yrotation Zrotation
										JOINT leftMiddleDistal
										{
											OFFSET 2.949997 0.000000 0.000000
											CHANNELS 3 Xrotation Yrotation Zrotation
											JOINT leftHandMiddle4
											{
												OFFSET 2.952896 0.000000 0.000000
												CHANNELS 3 Xrotation Yrotation Zrotation
												End Site
												{
													OFFSET 2.952904 0.000000 0.000165
												}
											}
										}
									}
								}
								JOINT leftRingProximal
								{
									OFFSET 9.104500 -0.042999 -1.865101
									CHANNELS 6 Xposition Yposition Zposition Xrotation Yrotation Zrotation
									JOINT leftRingIntermediate
									{
										OFFSET 3.149994 0.000000 0.000000
										CHANNELS 3 Xrotation Yrotation Zrotation
										JOINT leftRingDistal
										{
											OFFSET 2.950005 0.000000 0.000000
											CHANNELS 3 Xrotation Yrotation Zrotation
											JOINT leftHandRing4
											{
												OFFSET 2.644302 0.000000 0.000000
												CHANNELS 3 Xrotation Yrotation Zrotation
												End Site
												{
													OFFSET 2.644302 0.000000 0.000083
												}
											}
										}
									}
								}
								JOINT leftLittleProximal
								{
									OFFSET 8.077805 -0.486893 -3.806302
									CHANNELS 6 Xposition Yposition Zposition Xrotation Yrotation Zrotation
									JOINT leftLittleIntermediate
									{
										OFFSET 3.600006 0.000000 0.000000
										CHANNELS 3 Xrotation Yrotation Zrotation
										JOINT leftLittleDistal
										{
											OFFSET 2.099998 0.000000 0.000000
											CHANNELS 3 Xrotation Yrotation Zrotation
											JOINT leftHandPinky4
											{
												OFFSET 2.125496 0.000000 0.000000
												CHANNELS 3 Xrotation Yrotation Zrotation
												End Site
												{
													OFFSET 2.125504 0.000000 -0.001254
												}
											}
										}
									}
								}
							}
						}
					}
				}
			}
		}
	}
	JOINT rightUpperLeg
	{
		OFFSET -8.207800 -6.751701 -1.599544
		CHANNELS 6 Xposition Yposition Zposition Xrotation Yrotation Zrotation
		JOINT rightLowerLeg
		{
			OFFSET 0.000004 -44.370152 0.345934
			CHANNELS 3 Xrotation Yrotation Zrotation
			JOINT rightFoot
			{
				OFFSET 0.000004 -44.423664 -3.043535
				CHANNELS 3 Xrotation Yrotation Zrotation
				JOINT rightToes
				{
					OFFSET 0.000001 -8.728691 10.710592
					CHANNELS 3 Xrotation Yrotation Zrotation
					JOINT rightToesEnd
					{
						OFFSET 0.000000 -0.000665 9.278101
						CHANNELS 3 Xrotation Yrotation Zrotation
						End Site
						{
							OFFSET 0.000000 -0.000665 9.278103
						}
					}
				}
			}
		}
	}
	JOINT leftUpperLeg
	{
		OFFSET 8.207800 -6.751701 -1.599544
		CHANNELS 6 Xposition Yposition Zposition Xrotation Yrotation Zrotation
		JOINT leftLowerLeg
		{
			OFFSET 0.000004 -44.370037 0.346940
			CHANNELS 3 Xrotation Yrotation Zrotation
			JOINT leftFoot
			{
				OFFSET 0.000004 -44.423611 -3.044388
				CHANNELS 3 Xrotation Yrotation Zrotation
				JOINT leftToes
				{
					OFFSET 0.000001 -8.728690 10.710592
					CHANNELS 3 Xrotation Yrotation Zrotation
					JOINT leftToesEnd
					{
						OFFSET 0.000000 -0.000680 9.278101
						CHANNELS 3 Xrotation Yrotation Zrotation
						End Site
						{
							OFFSET 0.000000 -0.000680 9.278101
						}
					}
				}
			}
		}
	}
}
MOTION
Frames: 4
Frame Time: 0.033333
-1.287024 88.789169 14.288018 3.768761 56.260811 -15.088468 0.000001 10.181527 0.131524 3.287015 2.064638 -7.692478 6.476412 5.452742 -5.380517 6.611934 5.280652 -5.363609 0.000004 16.740341 -2.049017 -1.856201 -6.843826 -7.724888 -0.000004 9.617841 1.684974 -11.997216 -41.099055 -8.677251 0.000004 22.037369 7.501066 -0.000000 -0.000001 0.000003 -4.570004 11.014873 -2.160836 -0.408349 -1.018141 -16.999318 -47.034882 51.649300 84.560966 -0.000020 29.805955 0.000034 35.749582 -6.743841 -6.812937 -2.464794 -1.573991 2.681919 -38.337719 -0.305057 -3.312106 4.645034 -8.656793 -0.231298 -2.646265 -1.527810 1.527808 -1.269834 0.126082 -2.098672 -1.994590 -1.151576 1.151578 -0.000003 -0.000006 -0.000004 -9.108304 -0.517881 2.259806 0.226463 -1.763471 14.633607 0.215896 -1.722602 14.286963 0.054171 -0.868030 7.141852 -0.000000 -0.000003 0.000000 -9.532502 0.000001 0.000005 0.226463 -1.763470 14.633603 0.215896 -1.722602 14.286964 0.054171 -0.868031 7.141853 0.000000 -0.000001 0.000000 -9.103601 -0.043105 -1.865101 0.226462 -1.763471 14.633603 0.215895 -1.722604 14.286964 0.054170 -0.868031 7.141852 0.000000 0.000002 0.000000 -8.076689 -0.486728 -3.806294 0.226461 -1.763472 14.633607 0.215898 -1.722602 14.286963 0.054167 -0.868035 7.141857 0.000000 0.000001 -0.000000 4.570403 11.014674 -2.160810 2.899284 -11.639365 -8.819917 -28.070940 -26.204147 -53.233750 -0.000002 -11.461565 -0.000001 40.529270 -15.222955 0.613722 2.466115 -1.576217 2.681696 -9.270846 -16.192123 18.228380 7.611412 15.456636 -3.771429 2.647877 -1.528744 1.528751 1.166866 5.392152 0.593980 1.998920 -1.154081 1.154079 0.000001 0.000003 0.000005 9.109285 -0.518009 2.259905 0.337324 2.132764 -17.974124 0.032359 0.668272 -5.546422 0.008106 0.334514 -2.773113 -0.000000 -0.000002 0.000000 9.533409 0.000004 -0.000002 0.336713 2.130934 -17.958123 0.032550 0.670191 -5.562396 0.008097 0.334528 -2.773102 0.000000 -0.000004 0.000000 9.104505 -0.042996 -1.865103 0.337323 2.132761 -17.974124 0.032359 0.668273 -5.546422 0.008106 0.334516 -2.773113 0.000000 0.000003 -0.000000 8.077801 -0.486882 -3.806301 1.577081 5.993927 -17.551607 0.020292 -3.386300 -6.054804 0.008099 0.334533 -2.773123 0.000000 0.000001 -0.000000 -8.207800 -6.751730 -1.599533 -39.930737 2.268964 -3.590223 60.660775 9.301946 -1.460005 -16.735056 -2.459267 8.132693 -8.835152 -0.000010 -0.000007 0.000000 -0.000000 -0.000001 8.207796 -6.751712 -1.599543 -38.881378 2.919792 19.809657 69.161164 6.948320 -3.465386 -30.494015 10.306895 -3.968728 -17.275954 0.000016 0.000017 -0.000001 0.000000 0.000000 
-0.434145 94.778969 11.764565 3.800234 46.078519 -17.363553 0.000001 10.181540 0.131523 2.176855 2.346514 -6.473444 4.381342 5.540384 -5.658404 4.482444 5.453796 -5.653235 -0.000003 16.740374 -2.049023 -2.855297 -6.595860 -6.837663 -0.000002 9.617851 1.684978 -11.853226 -39.817370 -7.406235 -0.000006 22.037369 7.501077 0.000003 0.000000 0.000003 -4.570000 11.014874 -2.160842 -1.195800 -3.821387 -17.592703 -50.063326 52.632089 77.645925 -0.000004 38.253718 0.000038 19.840147 -5.419093 -10.611828 -2.464799 -1.573999 2.681923 -38.337719 -0.305059 -3.312107 4.645036 -8.656793 -0.231295 -2.646261 -1.527819 1.527811 -1.269834 0.126080 -2.098670 -1.994601 -1.151580 1.151571 0.000003 -0.000001 -0.000002 -9.108289 -0.517881 2.259800 0.226462 -1.763474 14.633602 0.215898 -1.722603 14.286969 0.054171 -0.868027 7.141856 0.000001 0.000002 0.000002 -9.532491 -0.000000 -0.000003 0.226462 -1.763473 14.633600 0.215898 -1.722603 14.286968 0.054173 -0.868029 7.141857 -0.000001 0.000001 -0.000003 -9.103589 -0.043110 -1.865105 0.226463 -1.763473 14.633598 0.215897 -1.722603 14.286968 0.054171 -0.868027 7.141855 -0.000000 0.000001 0.000002 -8.076692 -0.486728 -3.806302 0.226462 -1.763475 14.633602 0.215900 -1.722602 14.286966 0.054169 -0.868038 7.141859 0.000001 0.000004 0.000001 4.570401 11.014679 -2.160819 2.844609 -11.320779 -8.536429 -26.840456 -24.481853 -50.456868 0.000009 -18.531983 0.000005 34.772415 -14.777051 -2.943090 2.466100 -1.576213 2.681697 -9.270841 -16.192119 18.228393 7.611414 15.456636 -3.771435 2.647876 -1.528759 1.528744 1.166866 5.392150 0.593980 1.998931 -1.154081 1.154066 -0.000000 -0.000003 0.000003 9.109304 -0.518011 2.259899 0.337324 2.132765 -17.974123 0.032359 0.668277 -5.546423 0.008106 0.334517 -2.773112 0.000001 -0.000003 0.000000 9.533401 -0.000013 0.000000 0.336714 2.130938 -17.958130 0.032550 0.670191 -5.562396 0.008098 0.334527 -2.773103 0.000001 -0.000001 -0.000000 9.104515 -0.042996 -1.865102 0.337324 2.132765 -17.974121 0.032360 0.668277 -5.546422 0.008107 0.334523 -2.773114 0.000000 0.000001 -0.000000 8.077819 -0.486897 -3.806305 1.577081 5.993931 -17.551607 0.020292 -3.386302 -6.054803 0.008099 0.334533 -2.773122 -0.000000 0.000002 -0.000000 -8.207799 -6.751720 -1.599539 -40.821309 -0.163265 -3.868659 57.157656 -0.468841 0.517558 -7.137664 -8.818886 25.069945 -9.186681 0.000005 -0.000008 0.000000 0.000002 -0.000000 8.207800 -6.751707 -1.599551 -35.264280 2.066391 23.412012 60.919168 0.638556 -4.225419 -17.182586 6.126351 -10.069123 -16.607149 -0.000000 0.000001 0.000000 0.000000 -0.000001 
0.462662 100.318939 9.062568 3.350546 36.866284 -18.688547 0.000003 10.181555 0.131522 1.384856 2.439682 -4.411521 2.800536 5.005950 -5.893006 2.848882 4.988651 -5.887754 -0.000003 16.740366 -2.049017 -3.336903 -6.251668 -4.908676 0.000009 9.617822 1.684981 -13.121298 -35.972660 -6.588946 0.000008 22.037354 7.501095 0.000002 0.000001 -0.000002 -4.570002 11.014862 -2.160838 -1.628484 -5.078000 -18.771002 -53.496490 50.989039 66.064103 -0.000024 41.676339 0.000055 1.167138 -2.244429 -15.326724 -2.464803 -1.573991 2.681921 -38.337715 -0.305062 -3.312105 4.645038 -8.656793 -0.231297 -2.646268 -1.527818 1.527822 -1.269834 0.126080 -2.098677 -1.994586 -1.151585 1.151587 -0.000001 -0.000001 -0.000002 -9.108293 -0.517883 2.259809 0.226461 -1.763471 14.633605 0.215896 -1.722601 14.286965 0.054169 -0.868031 7.141855 -0.000000 -0.000004 0.000001 -9.532498 0.000001 0.000002 0.226461 -1.763473 14.633603 0.215895 -1.722603 14.286964 0.054171 -0.868031 7.141855 0.000005 0.000000 0.000004 -9.103590 -0.043108 -1.865097 0.226461 -1.763470 14.633603 0.215898 -1.722607 14.286968 0.054169 -0.868031 7.141852 0.000005 0.000002 0.000003 -8.076689 -0.486732 -3.806287 0.226459 -1.763471 14.633607 0.215899 -1.722600 14.286965 0.054167 -0.868037 7.141856 0.000004 0.000000 0.000002 4.570391 11.014680 -2.160812 2.690246 -10.497226 -8.080156 -26.435378 -22.748621 -47.866922 -0.000002 -27.672146 0.000006 28.456831 -14.130353 -5.936320 2.466100 -1.576216 2.681697 -9.270857 -16.192121 18.228393 7.611414 15.456640 -3.771433 2.647897 -1.528729 1.528751 1.166866 5.392152 0.593978 1.998917 -1.154080 1.154073 0.000002 0.000000 0.000003 9.109282 -0.518009 2.259906 0.337327 2.132766 -17.974123 0.032358 0.668277 -5.546421 0.008106 0.334517 -2.773112 0.000000 0.000002 -0.000000 9.533397 0.000000 0.000006 0.336715 2.130935 -17.958126 0.032549 0.670190 -5.562395 0.008096 0.334529 -2.773103 0.000000 0.000002 -0.000001 9.104504 -0.042995 -1.865096 0.337327 2.132766 -17.974123 0.032360 0.668276 -5.546422 0.008107 0.334511 -2.773112 -0.000002 -0.000002 0.000000 8.077804 -0.486879 -3.806297 1.577084 5.993930 -17.551605 0.020292 -3.386297 -6.054805 0.008099 0.334533 -2.773122 -0.000002 0.000004 -0.000002 -8.207802 -6.751706 -1.599552 -43.027760 -3.536397 -4.052977 61.533523 -3.276680 -0.172276 0.887164 -8.045072 28.661601 -9.489701 -0.000002 0.000001 0.000000 -0.000001 -0.000001 8.207803 -6.751701 -1.599548 -29.705155 0.823369 25.896736 51.996301 -5.645392 -3.959848 -1.738158 5.323427 -22.333605 -18.674459 -1.374973 11.495268 -0.000000 0.000003 -0.000000 
1.555986 104.065025 6.680853 1.904352 29.284904 -18.633157 -0.000002 10.181554 0.131521 0.802836 2.234421 -2.481465 1.602411 3.997498 -5.873800 1.609087 4.012356 -5.867802 0.000002 16.740360 -2.049016 -3.312919 -5.984734 -2.532474 -0.000010 9.617862 1.684974 -15.558433 -31.719918 -6.162586 -0.000009 22.037384 7.501062 0.000002 0.000002 0.000000 -4.570001 11.014877 -2.160837 -1.670013 -4.865099 -19.984591 -55.455255 48.391416 49.306903 -0.000018 42.000035 0.000038 -4.045945 -2.392238 -19.656832 -2.464803 -1.573991 2.681918 -38.337712 -0.305060 -3.312105 4.645034 -8.656795 -0.231295 -2.646261 -1.527825 1.527815 -1.269837 0.126082 -2.098674 -1.994583 -1.151598 1.151578 0.000001 -0.000005 -0.000000 -9.108289 -0.517896 2.259808 0.226462 -1.763473 14.633603 0.215897 -1.722608 14.286967 0.054169 -0.868032 7.141854 0.000001 -0.000004 0.000000 -9.532498 -0.000014 0.000004 0.226464 -1.763475 14.633603 0.215897 -1.722609 14.286968 0.054170 -0.868031 7.141852 0.000000 -0.000001 0.000001 -9.103601 -0.043120 -1.865099 0.226463 -1.763474 14.633600 0.215898 -1.722606 14.286967 0.054170 -0.868033 7.141852 0.000001 -0.000001 0.000001 -8.076689 -0.486757 -3.806295 0.226456 -1.763473 14.633605 0.215900 -1.722608 14.286966 0.054167 -0.868040 7.141856 -0.000000 -0.000004 0.000003 4.570394 11.014684 -2.160813 2.450431 -9.183112 -7.780322 -26.417273 -20.080693 -45.465380 -0.000010 -36.643876 0.000011 22.511919 -13.324096 -7.748821 2.466085 -1.576206 2.681706 -9.270859 -16.192126 18.228392 7.611416 15.456641 -3.771428 2.647874 -1.528744 1.528750 1.166864 5.392149 0.593978 1.998930 -1.154090 1.154074 0.000000 0.000000 -0.000005 9.109282 -0.518009 2.259914 0.337324 2.132760 -17.974124 0.032358 0.668275 -5.546421 0.008103 0.334517 -2.773114 -0.000001 0.000000 -0.000001 9.533401 0.000004 0.000015 0.336715 2.130931 -17.958126 0.032551 0.670187 -5.562395 0.008095 0.334529 -2.773104 -0.000000 -0.000001 -0.000001 9.104497 -0.042996 -1.865085 0.337324 2.132760 -17.974123 0.032359 0.668275 -5.546421 0.008103 0.334513 -2.773113 -0.000000 0.000003 -0.000001 8.077789 -0.486900 -3.806293 1.577082 5.993924 -17.551607 0.020291 -3.386299 -6.054804 0.008095 0.334536 -2.773125 0.000002 0.000007 -0.000001 -8.207804 -6.751726 -1.599540 -43.957226 -5.576147 -4.890850 69.882486 -1.568658 -0.821255 7.225063 -4.658518 28.581620 -9.763720 0.000004 -0.000004 -0.000000 0.000000 0.000000 8.207794 -6.751711 -1.599546 -23.137758 1.567246 25.246000 46.912564 -8.677397 -3.041848 3.486106 2.259559 -17.627707 -16.674362 -0.575460 7.423979 0.000000 -0.000000 0.000002 
